<?xml version="1.0" standalone="no"?>
<svg xmlns:xlink="http://www.w3.org/1999/xlink" id="wave" style="transform:rotate(180deg); transition: 0.3s" viewBox="0 0 1440 490" version="1.1" xmlns="http://www.w3.org/2000/svg"><defs><linearGradient id="sw-gradient-0" x1="0" x2="0" y1="1" y2="0"><stop stop-color="rgba(222, 222, 185, 1)" offset="0%"/><stop stop-color="rgba(222, 222, 185, 1)" offset="100%"/></linearGradient></defs><path style="transform:translate(0, 0px); opacity:1" fill="url(#sw-gradient-0)" d="M0,196L120,187.8C240,180,480,163,720,204.2C960,245,1200,343,1440,392C1680,441,1920,441,2160,408.3C2400,376,2640,310,2880,253.2C3120,196,3360,147,3600,179.7C3840,212,4080,327,4320,359.3C4560,392,4800,343,5040,277.7C5280,212,5520,131,5760,106.2C6000,82,6240,114,6480,155.2C6720,196,6960,245,7200,285.8C7440,327,7680,359,7920,318.5C8160,278,8400,163,8640,114.3C8880,65,9120,82,9360,81.7C9600,82,9840,65,10080,98C10320,131,10560,212,10800,277.7C11040,343,11280,392,11520,359.3C11760,327,12000,212,12240,163.3C12480,114,12720,131,12960,179.7C13200,229,13440,310,13680,343C13920,376,14160,359,14400,334.8C14640,310,14880,278,15120,285.8C15360,294,15600,343,15840,310.3C16080,278,16320,163,16560,155.2C16800,147,17040,245,17160,294L17280,343L17280,490L17160,490C17040,490,16800,490,16560,490C16320,490,16080,490,15840,490C15600,490,15360,490,15120,490C14880,490,14640,490,14400,490C14160,490,13920,490,13680,490C13440,490,13200,490,12960,490C12720,490,12480,490,12240,490C12000,490,11760,490,11520,490C11280,490,11040,490,10800,490C10560,490,10320,490,10080,490C9840,490,9600,490,9360,490C9120,490,8880,490,8640,490C8400,490,8160,490,7920,490C7680,490,7440,490,7200,490C6960,490,6720,490,6480,490C6240,490,6000,490,5760,490C5520,490,5280,490,5040,490C4800,490,4560,490,4320,490C4080,490,3840,490,3600,490C3360,490,3120,490,2880,490C2640,490,2400,490,2160,490C1920,490,1680,490,1440,490C1200,490,960,490,720,490C480,490,240,490,120,490L0,490Z"/></svg>