<?xml version="1.0" standalone="no"?>
<svg xmlns:xlink="http://www.w3.org/1999/xlink" id="wave" style="transform:rotate(180deg); transition: 0.3s" viewBox="0 0 1440 180" version="1.1" xmlns="http://www.w3.org/2000/svg"><defs><linearGradient id="sw-gradient-0" x1="0" x2="0" y1="1" y2="0"><stop stop-color="rgba(240, 233, 233, 1)" offset="0%"/><stop stop-color="rgba(240, 233, 233, 1)" offset="100%"/></linearGradient></defs><path style="transform:translate(0, 0px); opacity:1" fill="url(#sw-gradient-0)" d="M0,0L120,15C240,30,480,60,720,78C960,96,1200,102,1440,96C1680,90,1920,72,2160,75C2400,78,2640,102,2880,117C3120,132,3360,138,3600,126C3840,114,4080,84,4320,78C4560,72,4800,90,5040,90C5280,90,5520,72,5760,69C6000,66,6240,78,6480,96C6720,114,6960,138,7200,147C7440,156,7680,150,7920,147C8160,144,8400,144,8640,144C8880,144,9120,144,9360,120C9600,96,9840,48,10080,42C10320,36,10560,72,10800,81C11040,90,11280,72,11520,63C11760,54,12000,54,12240,51C12480,48,12720,42,12960,51C13200,60,13440,84,13680,90C13920,96,14160,84,14400,66C14640,48,14880,24,15120,24C15360,24,15600,48,15840,57C16080,66,16320,60,16560,60C16800,60,17040,66,17160,69L17280,72L17280,180L17160,180C17040,180,16800,180,16560,180C16320,180,16080,180,15840,180C15600,180,15360,180,15120,180C14880,180,14640,180,14400,180C14160,180,13920,180,13680,180C13440,180,13200,180,12960,180C12720,180,12480,180,12240,180C12000,180,11760,180,11520,180C11280,180,11040,180,10800,180C10560,180,10320,180,10080,180C9840,180,9600,180,9360,180C9120,180,8880,180,8640,180C8400,180,8160,180,7920,180C7680,180,7440,180,7200,180C6960,180,6720,180,6480,180C6240,180,6000,180,5760,180C5520,180,5280,180,5040,180C4800,180,4560,180,4320,180C4080,180,3840,180,3600,180C3360,180,3120,180,2880,180C2640,180,2400,180,2160,180C1920,180,1680,180,1440,180C1200,180,960,180,720,180C480,180,240,180,120,180L0,180Z"/></svg>