<?xml version="1.0" standalone="no"?>
<svg xmlns:xlink="http://www.w3.org/1999/xlink" id="wave" style="transform:rotate(180deg); transition: 0.3s" viewBox="0 0 1440 200" version="1.1" xmlns="http://www.w3.org/2000/svg"><defs><linearGradient id="sw-gradient-0" x1="0" x2="0" y1="1" y2="0"><stop stop-color="rgba(240, 233, 233, 1)" offset="0%"/><stop stop-color="rgba(222, 222, 185, 1)" offset="100%"/></linearGradient></defs><path style="transform:translate(0, 0px); opacity:1" fill="url(#sw-gradient-0)" d="M0,0L120,16.7C240,33,480,67,720,86.7C960,107,1200,113,1440,106.7C1680,100,1920,80,2160,83.3C2400,87,2640,113,2880,130C3120,147,3360,153,3600,140C3840,127,4080,93,4320,86.7C4560,80,4800,100,5040,100C5280,100,5520,80,5760,76.7C6000,73,6240,87,6480,106.7C6720,127,6960,153,7200,163.3C7440,173,7680,167,7920,163.3C8160,160,8400,160,8640,160C8880,160,9120,160,9360,133.3C9600,107,9840,53,10080,46.7C10320,40,10560,80,10800,90C11040,100,11280,80,11520,70C11760,60,12000,60,12240,56.7C12480,53,12720,47,12960,56.7C13200,67,13440,93,13680,100C13920,107,14160,93,14400,73.3C14640,53,14880,27,15120,26.7C15360,27,15600,53,15840,63.3C16080,73,16320,67,16560,66.7C16800,67,17040,73,17160,76.7L17280,80L17280,200L17160,200C17040,200,16800,200,16560,200C16320,200,16080,200,15840,200C15600,200,15360,200,15120,200C14880,200,14640,200,14400,200C14160,200,13920,200,13680,200C13440,200,13200,200,12960,200C12720,200,12480,200,12240,200C12000,200,11760,200,11520,200C11280,200,11040,200,10800,200C10560,200,10320,200,10080,200C9840,200,9600,200,9360,200C9120,200,8880,200,8640,200C8400,200,8160,200,7920,200C7680,200,7440,200,7200,200C6960,200,6720,200,6480,200C6240,200,6000,200,5760,200C5520,200,5280,200,5040,200C4800,200,4560,200,4320,200C4080,200,3840,200,3600,200C3360,200,3120,200,2880,200C2640,200,2400,200,2160,200C1920,200,1680,200,1440,200C1200,200,960,200,720,200C480,200,240,200,120,200L0,200Z"/></svg>